# xmcd CD database file
#
# Track frame offsets:
#	150
#	16439
#	41325
#	56380
#	70065
#	89934
#	107918
#	122079
#	140790
#	162236
#	178265
#	201021
#	225147
#	238142
#	252066
#	266662
#	282058
#	296531
#	319940
#
# Disc length: 4466 seconds
#
# Revision: 2
# Processed by: cddbd v1.4b41PL1 Copyright (c) Steve Scherf et al.
# Submitted via: Feurio! 1.50.2ß - http://www.feurio.com
#
DISCID=17117013
DTITLE=Various Artist - OLDIES 26
DYEAR=1900
DGENRE=
TTITLE0=Berger - Zeig Mir Dein Gesicht
TTITLE1=Udo Lindenberg - Sympathie fuer den Teufel
TTITLE2=Monkees - The Girl I Knew Somewhere
TTITLE3=Rose Tattoo - bad boy for love
TTITLE4=Serge Gainsbourg and Jane Birkin - Je Taime ...moi non plus
TTITLE5=Udo Lindenberg - Wozu sind Kriege da?
TTITLE6=Dave Davies - Death of a Clown
TTITLE7=Marius Müller-Westernhagen - Dicke
TTITLE8=Extrabreit - Polizisten
TTITLE9=Move - Blackberry Way
TTITLE10=Bee Gees - Tragedy
TTITLE11=Phil Collins - In the Air Tonight
TTITLE12=Monkees - A Little Bit Me, a Little Bit
TTITLE13=Shocking Blue - Never Mary A Railroad Man
TTITLE14=Bee Gees -  Words
TTITLE15=Neil Diamond - I am i said
TTITLE16=Deep purple - Soldier of fortune
TTITLE17=Tommy James and The Shondells - Crimson and Clover
TTITLE18=Small Faces - Tin Soldier
EXTD=
EXTT0=
EXTT1=
EXTT2=
EXTT3=
EXTT4=
EXTT5=
EXTT6=
EXTT7=
EXTT8=
EXTT9=
EXTT10=
EXTT11=
EXTT12=
EXTT13=
EXTT14=
EXTT15=
EXTT16=
EXTT17=
EXTT18=
PLAYORDER=
